# xmcd
#
# Track frame offsets: 
#        150
#        23255
#        44775
#        62910
#        89652
#        108868
#        135023
#        151420
#        176860
#        201838
#        218410
#        243828
#        271443
#        299383
#
# Disc length: 4451 seconds
#
# Revision: 0
# Processed by: cddbd v1.5.2PL0 Copyright (c) Steve Scherf et al.
# Submitted via: ExactAudioCopy v0.95a5
#
DISCID=c311610e
DTITLE=Black Crows - Amorica
DYEAR=1994
DGENRE=Blues Rock
TTITLE0=Gone
TTITLE1=A Conspiracy
TTITLE2=High Head Blues
TTITLE3=Cursed Diamond
TTITLE4=Nonfiction
TTITLE5=She Gave Good Sunflower
TTITLE6=P. 25 London
TTITLE7=Ballad In Urgency 
TTITLE8=Wiser Time
TTITLE9=Downtown Money Waster
TTITLE10=Desending
TTITLE11=Cursed Diamond (Live)
TTITLE12=Miracle To Me (Live)
TTITLE13=Girl From A Pawnshop (Live)
EXTD=
EXTT0=
EXTT1=
EXTT2=
EXTT3=
EXTT4=
EXTT5=
EXTT6=
EXTT7=
EXTT8=
EXTT9=
EXTT10=
EXTT11=
EXTT12=
EXTT13=
PLAYORDER=
